G75*
G70*
%OFA0B0*%
%FSLAX24Y24*%
%IPPOS*%
%LPD*%
%AMOC8*
5,1,8,0,0,1.08239X$1,22.5*
%
%ADD10C,0.0000*%
%ADD11C,0.0060*%
%ADD12C,0.0080*%
%ADD13C,0.0050*%
%ADD14C,0.0040*%
D10*
X005590Y003256D02*
X005590Y013492D01*
X015039Y013492D01*
X015039Y003256D01*
X005590Y003256D01*
X006180Y004437D02*
X006182Y004485D01*
X006188Y004533D01*
X006198Y004580D01*
X006211Y004626D01*
X006229Y004671D01*
X006249Y004715D01*
X006274Y004757D01*
X006302Y004796D01*
X006332Y004833D01*
X006366Y004867D01*
X006403Y004899D01*
X006441Y004928D01*
X006482Y004953D01*
X006525Y004975D01*
X006570Y004993D01*
X006616Y005007D01*
X006663Y005018D01*
X006711Y005025D01*
X006759Y005028D01*
X006807Y005027D01*
X006855Y005022D01*
X006903Y005013D01*
X006949Y005001D01*
X006994Y004984D01*
X007038Y004964D01*
X007080Y004941D01*
X007120Y004914D01*
X007158Y004884D01*
X007193Y004851D01*
X007225Y004815D01*
X007255Y004777D01*
X007281Y004736D01*
X007303Y004693D01*
X007323Y004649D01*
X007338Y004604D01*
X007350Y004557D01*
X007358Y004509D01*
X007362Y004461D01*
X007362Y004413D01*
X007358Y004365D01*
X007350Y004317D01*
X007338Y004270D01*
X007323Y004225D01*
X007303Y004181D01*
X007281Y004138D01*
X007255Y004097D01*
X007225Y004059D01*
X007193Y004023D01*
X007158Y003990D01*
X007120Y003960D01*
X007080Y003933D01*
X007038Y003910D01*
X006994Y003890D01*
X006949Y003873D01*
X006903Y003861D01*
X006855Y003852D01*
X006807Y003847D01*
X006759Y003846D01*
X006711Y003849D01*
X006663Y003856D01*
X006616Y003867D01*
X006570Y003881D01*
X006525Y003899D01*
X006482Y003921D01*
X006441Y003946D01*
X006403Y003975D01*
X006366Y004007D01*
X006332Y004041D01*
X006302Y004078D01*
X006274Y004117D01*
X006249Y004159D01*
X006229Y004203D01*
X006211Y004248D01*
X006198Y004294D01*
X006188Y004341D01*
X006182Y004389D01*
X006180Y004437D01*
X013267Y004437D02*
X013269Y004485D01*
X013275Y004533D01*
X013285Y004580D01*
X013298Y004626D01*
X013316Y004671D01*
X013336Y004715D01*
X013361Y004757D01*
X013389Y004796D01*
X013419Y004833D01*
X013453Y004867D01*
X013490Y004899D01*
X013528Y004928D01*
X013569Y004953D01*
X013612Y004975D01*
X013657Y004993D01*
X013703Y005007D01*
X013750Y005018D01*
X013798Y005025D01*
X013846Y005028D01*
X013894Y005027D01*
X013942Y005022D01*
X013990Y005013D01*
X014036Y005001D01*
X014081Y004984D01*
X014125Y004964D01*
X014167Y004941D01*
X014207Y004914D01*
X014245Y004884D01*
X014280Y004851D01*
X014312Y004815D01*
X014342Y004777D01*
X014368Y004736D01*
X014390Y004693D01*
X014410Y004649D01*
X014425Y004604D01*
X014437Y004557D01*
X014445Y004509D01*
X014449Y004461D01*
X014449Y004413D01*
X014445Y004365D01*
X014437Y004317D01*
X014425Y004270D01*
X014410Y004225D01*
X014390Y004181D01*
X014368Y004138D01*
X014342Y004097D01*
X014312Y004059D01*
X014280Y004023D01*
X014245Y003990D01*
X014207Y003960D01*
X014167Y003933D01*
X014125Y003910D01*
X014081Y003890D01*
X014036Y003873D01*
X013990Y003861D01*
X013942Y003852D01*
X013894Y003847D01*
X013846Y003846D01*
X013798Y003849D01*
X013750Y003856D01*
X013703Y003867D01*
X013657Y003881D01*
X013612Y003899D01*
X013569Y003921D01*
X013528Y003946D01*
X013490Y003975D01*
X013453Y004007D01*
X013419Y004041D01*
X013389Y004078D01*
X013361Y004117D01*
X013336Y004159D01*
X013316Y004203D01*
X013298Y004248D01*
X013285Y004294D01*
X013275Y004341D01*
X013269Y004389D01*
X013267Y004437D01*
X013267Y012311D02*
X013269Y012359D01*
X013275Y012407D01*
X013285Y012454D01*
X013298Y012500D01*
X013316Y012545D01*
X013336Y012589D01*
X013361Y012631D01*
X013389Y012670D01*
X013419Y012707D01*
X013453Y012741D01*
X013490Y012773D01*
X013528Y012802D01*
X013569Y012827D01*
X013612Y012849D01*
X013657Y012867D01*
X013703Y012881D01*
X013750Y012892D01*
X013798Y012899D01*
X013846Y012902D01*
X013894Y012901D01*
X013942Y012896D01*
X013990Y012887D01*
X014036Y012875D01*
X014081Y012858D01*
X014125Y012838D01*
X014167Y012815D01*
X014207Y012788D01*
X014245Y012758D01*
X014280Y012725D01*
X014312Y012689D01*
X014342Y012651D01*
X014368Y012610D01*
X014390Y012567D01*
X014410Y012523D01*
X014425Y012478D01*
X014437Y012431D01*
X014445Y012383D01*
X014449Y012335D01*
X014449Y012287D01*
X014445Y012239D01*
X014437Y012191D01*
X014425Y012144D01*
X014410Y012099D01*
X014390Y012055D01*
X014368Y012012D01*
X014342Y011971D01*
X014312Y011933D01*
X014280Y011897D01*
X014245Y011864D01*
X014207Y011834D01*
X014167Y011807D01*
X014125Y011784D01*
X014081Y011764D01*
X014036Y011747D01*
X013990Y011735D01*
X013942Y011726D01*
X013894Y011721D01*
X013846Y011720D01*
X013798Y011723D01*
X013750Y011730D01*
X013703Y011741D01*
X013657Y011755D01*
X013612Y011773D01*
X013569Y011795D01*
X013528Y011820D01*
X013490Y011849D01*
X013453Y011881D01*
X013419Y011915D01*
X013389Y011952D01*
X013361Y011991D01*
X013336Y012033D01*
X013316Y012077D01*
X013298Y012122D01*
X013285Y012168D01*
X013275Y012215D01*
X013269Y012263D01*
X013267Y012311D01*
X006180Y012311D02*
X006182Y012359D01*
X006188Y012407D01*
X006198Y012454D01*
X006211Y012500D01*
X006229Y012545D01*
X006249Y012589D01*
X006274Y012631D01*
X006302Y012670D01*
X006332Y012707D01*
X006366Y012741D01*
X006403Y012773D01*
X006441Y012802D01*
X006482Y012827D01*
X006525Y012849D01*
X006570Y012867D01*
X006616Y012881D01*
X006663Y012892D01*
X006711Y012899D01*
X006759Y012902D01*
X006807Y012901D01*
X006855Y012896D01*
X006903Y012887D01*
X006949Y012875D01*
X006994Y012858D01*
X007038Y012838D01*
X007080Y012815D01*
X007120Y012788D01*
X007158Y012758D01*
X007193Y012725D01*
X007225Y012689D01*
X007255Y012651D01*
X007281Y012610D01*
X007303Y012567D01*
X007323Y012523D01*
X007338Y012478D01*
X007350Y012431D01*
X007358Y012383D01*
X007362Y012335D01*
X007362Y012287D01*
X007358Y012239D01*
X007350Y012191D01*
X007338Y012144D01*
X007323Y012099D01*
X007303Y012055D01*
X007281Y012012D01*
X007255Y011971D01*
X007225Y011933D01*
X007193Y011897D01*
X007158Y011864D01*
X007120Y011834D01*
X007080Y011807D01*
X007038Y011784D01*
X006994Y011764D01*
X006949Y011747D01*
X006903Y011735D01*
X006855Y011726D01*
X006807Y011721D01*
X006759Y011720D01*
X006711Y011723D01*
X006663Y011730D01*
X006616Y011741D01*
X006570Y011755D01*
X006525Y011773D01*
X006482Y011795D01*
X006441Y011820D01*
X006403Y011849D01*
X006366Y011881D01*
X006332Y011915D01*
X006302Y011952D01*
X006274Y011991D01*
X006249Y012033D01*
X006229Y012077D01*
X006211Y012122D01*
X006198Y012168D01*
X006188Y012215D01*
X006182Y012263D01*
X006180Y012311D01*
D11*
X005421Y012311D02*
X005423Y012384D01*
X005429Y012457D01*
X005439Y012529D01*
X005453Y012601D01*
X005470Y012672D01*
X005492Y012742D01*
X005517Y012811D01*
X005546Y012878D01*
X005578Y012943D01*
X005614Y013007D01*
X005654Y013069D01*
X005696Y013128D01*
X005742Y013185D01*
X005791Y013239D01*
X005843Y013291D01*
X005897Y013340D01*
X005954Y013386D01*
X006013Y013428D01*
X006075Y013468D01*
X006139Y013504D01*
X006204Y013536D01*
X006271Y013565D01*
X006340Y013590D01*
X006410Y013612D01*
X006481Y013629D01*
X006553Y013643D01*
X006625Y013653D01*
X006698Y013659D01*
X006771Y013661D01*
X006844Y013659D01*
X006917Y013653D01*
X006989Y013643D01*
X007061Y013629D01*
X007132Y013612D01*
X007202Y013590D01*
X007271Y013565D01*
X007338Y013536D01*
X007403Y013504D01*
X007467Y013468D01*
X007529Y013428D01*
X007588Y013386D01*
X007645Y013340D01*
X007699Y013291D01*
X007751Y013239D01*
X007800Y013185D01*
X007846Y013128D01*
X007888Y013069D01*
X007928Y013007D01*
X007964Y012943D01*
X007996Y012878D01*
X008025Y012811D01*
X008050Y012742D01*
X008072Y012672D01*
X008089Y012601D01*
X008103Y012529D01*
X008113Y012457D01*
X008119Y012384D01*
X008121Y012311D01*
X008119Y012238D01*
X008113Y012165D01*
X008103Y012093D01*
X008089Y012021D01*
X008072Y011950D01*
X008050Y011880D01*
X008025Y011811D01*
X007996Y011744D01*
X007964Y011679D01*
X007928Y011615D01*
X007888Y011553D01*
X007846Y011494D01*
X007800Y011437D01*
X007751Y011383D01*
X007699Y011331D01*
X007645Y011282D01*
X007588Y011236D01*
X007529Y011194D01*
X007467Y011154D01*
X007403Y011118D01*
X007338Y011086D01*
X007271Y011057D01*
X007202Y011032D01*
X007132Y011010D01*
X007061Y010993D01*
X006989Y010979D01*
X006917Y010969D01*
X006844Y010963D01*
X006771Y010961D01*
X006698Y010963D01*
X006625Y010969D01*
X006553Y010979D01*
X006481Y010993D01*
X006410Y011010D01*
X006340Y011032D01*
X006271Y011057D01*
X006204Y011086D01*
X006139Y011118D01*
X006075Y011154D01*
X006013Y011194D01*
X005954Y011236D01*
X005897Y011282D01*
X005843Y011331D01*
X005791Y011383D01*
X005742Y011437D01*
X005696Y011494D01*
X005654Y011553D01*
X005614Y011615D01*
X005578Y011679D01*
X005546Y011744D01*
X005517Y011811D01*
X005492Y011880D01*
X005470Y011950D01*
X005453Y012021D01*
X005439Y012093D01*
X005429Y012165D01*
X005423Y012238D01*
X005421Y012311D01*
X005421Y004437D02*
X005423Y004510D01*
X005429Y004583D01*
X005439Y004655D01*
X005453Y004727D01*
X005470Y004798D01*
X005492Y004868D01*
X005517Y004937D01*
X005546Y005004D01*
X005578Y005069D01*
X005614Y005133D01*
X005654Y005195D01*
X005696Y005254D01*
X005742Y005311D01*
X005791Y005365D01*
X005843Y005417D01*
X005897Y005466D01*
X005954Y005512D01*
X006013Y005554D01*
X006075Y005594D01*
X006139Y005630D01*
X006204Y005662D01*
X006271Y005691D01*
X006340Y005716D01*
X006410Y005738D01*
X006481Y005755D01*
X006553Y005769D01*
X006625Y005779D01*
X006698Y005785D01*
X006771Y005787D01*
X006844Y005785D01*
X006917Y005779D01*
X006989Y005769D01*
X007061Y005755D01*
X007132Y005738D01*
X007202Y005716D01*
X007271Y005691D01*
X007338Y005662D01*
X007403Y005630D01*
X007467Y005594D01*
X007529Y005554D01*
X007588Y005512D01*
X007645Y005466D01*
X007699Y005417D01*
X007751Y005365D01*
X007800Y005311D01*
X007846Y005254D01*
X007888Y005195D01*
X007928Y005133D01*
X007964Y005069D01*
X007996Y005004D01*
X008025Y004937D01*
X008050Y004868D01*
X008072Y004798D01*
X008089Y004727D01*
X008103Y004655D01*
X008113Y004583D01*
X008119Y004510D01*
X008121Y004437D01*
X008119Y004364D01*
X008113Y004291D01*
X008103Y004219D01*
X008089Y004147D01*
X008072Y004076D01*
X008050Y004006D01*
X008025Y003937D01*
X007996Y003870D01*
X007964Y003805D01*
X007928Y003741D01*
X007888Y003679D01*
X007846Y003620D01*
X007800Y003563D01*
X007751Y003509D01*
X007699Y003457D01*
X007645Y003408D01*
X007588Y003362D01*
X007529Y003320D01*
X007467Y003280D01*
X007403Y003244D01*
X007338Y003212D01*
X007271Y003183D01*
X007202Y003158D01*
X007132Y003136D01*
X007061Y003119D01*
X006989Y003105D01*
X006917Y003095D01*
X006844Y003089D01*
X006771Y003087D01*
X006698Y003089D01*
X006625Y003095D01*
X006553Y003105D01*
X006481Y003119D01*
X006410Y003136D01*
X006340Y003158D01*
X006271Y003183D01*
X006204Y003212D01*
X006139Y003244D01*
X006075Y003280D01*
X006013Y003320D01*
X005954Y003362D01*
X005897Y003408D01*
X005843Y003457D01*
X005791Y003509D01*
X005742Y003563D01*
X005696Y003620D01*
X005654Y003679D01*
X005614Y003741D01*
X005578Y003805D01*
X005546Y003870D01*
X005517Y003937D01*
X005492Y004006D01*
X005470Y004076D01*
X005453Y004147D01*
X005439Y004219D01*
X005429Y004291D01*
X005423Y004364D01*
X005421Y004437D01*
X012508Y004437D02*
X012510Y004510D01*
X012516Y004583D01*
X012526Y004655D01*
X012540Y004727D01*
X012557Y004798D01*
X012579Y004868D01*
X012604Y004937D01*
X012633Y005004D01*
X012665Y005069D01*
X012701Y005133D01*
X012741Y005195D01*
X012783Y005254D01*
X012829Y005311D01*
X012878Y005365D01*
X012930Y005417D01*
X012984Y005466D01*
X013041Y005512D01*
X013100Y005554D01*
X013162Y005594D01*
X013226Y005630D01*
X013291Y005662D01*
X013358Y005691D01*
X013427Y005716D01*
X013497Y005738D01*
X013568Y005755D01*
X013640Y005769D01*
X013712Y005779D01*
X013785Y005785D01*
X013858Y005787D01*
X013931Y005785D01*
X014004Y005779D01*
X014076Y005769D01*
X014148Y005755D01*
X014219Y005738D01*
X014289Y005716D01*
X014358Y005691D01*
X014425Y005662D01*
X014490Y005630D01*
X014554Y005594D01*
X014616Y005554D01*
X014675Y005512D01*
X014732Y005466D01*
X014786Y005417D01*
X014838Y005365D01*
X014887Y005311D01*
X014933Y005254D01*
X014975Y005195D01*
X015015Y005133D01*
X015051Y005069D01*
X015083Y005004D01*
X015112Y004937D01*
X015137Y004868D01*
X015159Y004798D01*
X015176Y004727D01*
X015190Y004655D01*
X015200Y004583D01*
X015206Y004510D01*
X015208Y004437D01*
X015206Y004364D01*
X015200Y004291D01*
X015190Y004219D01*
X015176Y004147D01*
X015159Y004076D01*
X015137Y004006D01*
X015112Y003937D01*
X015083Y003870D01*
X015051Y003805D01*
X015015Y003741D01*
X014975Y003679D01*
X014933Y003620D01*
X014887Y003563D01*
X014838Y003509D01*
X014786Y003457D01*
X014732Y003408D01*
X014675Y003362D01*
X014616Y003320D01*
X014554Y003280D01*
X014490Y003244D01*
X014425Y003212D01*
X014358Y003183D01*
X014289Y003158D01*
X014219Y003136D01*
X014148Y003119D01*
X014076Y003105D01*
X014004Y003095D01*
X013931Y003089D01*
X013858Y003087D01*
X013785Y003089D01*
X013712Y003095D01*
X013640Y003105D01*
X013568Y003119D01*
X013497Y003136D01*
X013427Y003158D01*
X013358Y003183D01*
X013291Y003212D01*
X013226Y003244D01*
X013162Y003280D01*
X013100Y003320D01*
X013041Y003362D01*
X012984Y003408D01*
X012930Y003457D01*
X012878Y003509D01*
X012829Y003563D01*
X012783Y003620D01*
X012741Y003679D01*
X012701Y003741D01*
X012665Y003805D01*
X012633Y003870D01*
X012604Y003937D01*
X012579Y004006D01*
X012557Y004076D01*
X012540Y004147D01*
X012526Y004219D01*
X012516Y004291D01*
X012510Y004364D01*
X012508Y004437D01*
X012508Y012311D02*
X012510Y012384D01*
X012516Y012457D01*
X012526Y012529D01*
X012540Y012601D01*
X012557Y012672D01*
X012579Y012742D01*
X012604Y012811D01*
X012633Y012878D01*
X012665Y012943D01*
X012701Y013007D01*
X012741Y013069D01*
X012783Y013128D01*
X012829Y013185D01*
X012878Y013239D01*
X012930Y013291D01*
X012984Y013340D01*
X013041Y013386D01*
X013100Y013428D01*
X013162Y013468D01*
X013226Y013504D01*
X013291Y013536D01*
X013358Y013565D01*
X013427Y013590D01*
X013497Y013612D01*
X013568Y013629D01*
X013640Y013643D01*
X013712Y013653D01*
X013785Y013659D01*
X013858Y013661D01*
X013931Y013659D01*
X014004Y013653D01*
X014076Y013643D01*
X014148Y013629D01*
X014219Y013612D01*
X014289Y013590D01*
X014358Y013565D01*
X014425Y013536D01*
X014490Y013504D01*
X014554Y013468D01*
X014616Y013428D01*
X014675Y013386D01*
X014732Y013340D01*
X014786Y013291D01*
X014838Y013239D01*
X014887Y013185D01*
X014933Y013128D01*
X014975Y013069D01*
X015015Y013007D01*
X015051Y012943D01*
X015083Y012878D01*
X015112Y012811D01*
X015137Y012742D01*
X015159Y012672D01*
X015176Y012601D01*
X015190Y012529D01*
X015200Y012457D01*
X015206Y012384D01*
X015208Y012311D01*
X015206Y012238D01*
X015200Y012165D01*
X015190Y012093D01*
X015176Y012021D01*
X015159Y011950D01*
X015137Y011880D01*
X015112Y011811D01*
X015083Y011744D01*
X015051Y011679D01*
X015015Y011615D01*
X014975Y011553D01*
X014933Y011494D01*
X014887Y011437D01*
X014838Y011383D01*
X014786Y011331D01*
X014732Y011282D01*
X014675Y011236D01*
X014616Y011194D01*
X014554Y011154D01*
X014490Y011118D01*
X014425Y011086D01*
X014358Y011057D01*
X014289Y011032D01*
X014219Y011010D01*
X014148Y010993D01*
X014076Y010979D01*
X014004Y010969D01*
X013931Y010963D01*
X013858Y010961D01*
X013785Y010963D01*
X013712Y010969D01*
X013640Y010979D01*
X013568Y010993D01*
X013497Y011010D01*
X013427Y011032D01*
X013358Y011057D01*
X013291Y011086D01*
X013226Y011118D01*
X013162Y011154D01*
X013100Y011194D01*
X013041Y011236D01*
X012984Y011282D01*
X012930Y011331D01*
X012878Y011383D01*
X012829Y011437D01*
X012783Y011494D01*
X012741Y011553D01*
X012701Y011615D01*
X012665Y011679D01*
X012633Y011744D01*
X012604Y011811D01*
X012579Y011880D01*
X012557Y011950D01*
X012540Y012021D01*
X012526Y012093D01*
X012516Y012165D01*
X012510Y012238D01*
X012508Y012311D01*
D12*
X013228Y012311D02*
X013230Y012361D01*
X013236Y012411D01*
X013246Y012460D01*
X013260Y012508D01*
X013277Y012555D01*
X013298Y012600D01*
X013323Y012644D01*
X013351Y012685D01*
X013383Y012724D01*
X013417Y012761D01*
X013454Y012795D01*
X013494Y012825D01*
X013536Y012852D01*
X013580Y012876D01*
X013626Y012897D01*
X013673Y012913D01*
X013721Y012926D01*
X013771Y012935D01*
X013820Y012940D01*
X013871Y012941D01*
X013921Y012938D01*
X013970Y012931D01*
X014019Y012920D01*
X014067Y012905D01*
X014113Y012887D01*
X014158Y012865D01*
X014201Y012839D01*
X014242Y012810D01*
X014281Y012778D01*
X014317Y012743D01*
X014349Y012705D01*
X014379Y012665D01*
X014406Y012622D01*
X014429Y012578D01*
X014448Y012532D01*
X014464Y012484D01*
X014476Y012435D01*
X014484Y012386D01*
X014488Y012336D01*
X014488Y012286D01*
X014484Y012236D01*
X014476Y012187D01*
X014464Y012138D01*
X014448Y012090D01*
X014429Y012044D01*
X014406Y012000D01*
X014379Y011957D01*
X014349Y011917D01*
X014317Y011879D01*
X014281Y011844D01*
X014242Y011812D01*
X014201Y011783D01*
X014158Y011757D01*
X014113Y011735D01*
X014067Y011717D01*
X014019Y011702D01*
X013970Y011691D01*
X013921Y011684D01*
X013871Y011681D01*
X013820Y011682D01*
X013771Y011687D01*
X013721Y011696D01*
X013673Y011709D01*
X013626Y011725D01*
X013580Y011746D01*
X013536Y011770D01*
X013494Y011797D01*
X013454Y011827D01*
X013417Y011861D01*
X013383Y011898D01*
X013351Y011937D01*
X013323Y011978D01*
X013298Y012022D01*
X013277Y012067D01*
X013260Y012114D01*
X013246Y012162D01*
X013236Y012211D01*
X013230Y012261D01*
X013228Y012311D01*
X009634Y010624D02*
X009634Y010124D01*
X009384Y009874D01*
X009634Y009624D01*
X009634Y009124D01*
X009384Y008874D01*
X009634Y008624D01*
X009634Y008124D01*
X009384Y007874D01*
X009634Y007624D01*
X009634Y007124D01*
X009384Y006874D01*
X009634Y006624D01*
X009634Y006124D01*
X009384Y005874D01*
X008884Y005874D01*
X008634Y006124D01*
X008634Y006624D01*
X008884Y006874D01*
X008634Y007124D01*
X008634Y007624D01*
X008884Y007874D01*
X008634Y008124D01*
X008634Y008624D01*
X008884Y008874D01*
X008634Y009124D01*
X008634Y009624D01*
X008884Y009874D01*
X008634Y010124D01*
X008634Y010624D01*
X008884Y010874D01*
X009384Y010874D01*
X009634Y010624D01*
X006141Y012311D02*
X006143Y012361D01*
X006149Y012411D01*
X006159Y012460D01*
X006173Y012508D01*
X006190Y012555D01*
X006211Y012600D01*
X006236Y012644D01*
X006264Y012685D01*
X006296Y012724D01*
X006330Y012761D01*
X006367Y012795D01*
X006407Y012825D01*
X006449Y012852D01*
X006493Y012876D01*
X006539Y012897D01*
X006586Y012913D01*
X006634Y012926D01*
X006684Y012935D01*
X006733Y012940D01*
X006784Y012941D01*
X006834Y012938D01*
X006883Y012931D01*
X006932Y012920D01*
X006980Y012905D01*
X007026Y012887D01*
X007071Y012865D01*
X007114Y012839D01*
X007155Y012810D01*
X007194Y012778D01*
X007230Y012743D01*
X007262Y012705D01*
X007292Y012665D01*
X007319Y012622D01*
X007342Y012578D01*
X007361Y012532D01*
X007377Y012484D01*
X007389Y012435D01*
X007397Y012386D01*
X007401Y012336D01*
X007401Y012286D01*
X007397Y012236D01*
X007389Y012187D01*
X007377Y012138D01*
X007361Y012090D01*
X007342Y012044D01*
X007319Y012000D01*
X007292Y011957D01*
X007262Y011917D01*
X007230Y011879D01*
X007194Y011844D01*
X007155Y011812D01*
X007114Y011783D01*
X007071Y011757D01*
X007026Y011735D01*
X006980Y011717D01*
X006932Y011702D01*
X006883Y011691D01*
X006834Y011684D01*
X006784Y011681D01*
X006733Y011682D01*
X006684Y011687D01*
X006634Y011696D01*
X006586Y011709D01*
X006539Y011725D01*
X006493Y011746D01*
X006449Y011770D01*
X006407Y011797D01*
X006367Y011827D01*
X006330Y011861D01*
X006296Y011898D01*
X006264Y011937D01*
X006236Y011978D01*
X006211Y012022D01*
X006190Y012067D01*
X006173Y012114D01*
X006159Y012162D01*
X006149Y012211D01*
X006143Y012261D01*
X006141Y012311D01*
X006141Y004437D02*
X006143Y004487D01*
X006149Y004537D01*
X006159Y004586D01*
X006173Y004634D01*
X006190Y004681D01*
X006211Y004726D01*
X006236Y004770D01*
X006264Y004811D01*
X006296Y004850D01*
X006330Y004887D01*
X006367Y004921D01*
X006407Y004951D01*
X006449Y004978D01*
X006493Y005002D01*
X006539Y005023D01*
X006586Y005039D01*
X006634Y005052D01*
X006684Y005061D01*
X006733Y005066D01*
X006784Y005067D01*
X006834Y005064D01*
X006883Y005057D01*
X006932Y005046D01*
X006980Y005031D01*
X007026Y005013D01*
X007071Y004991D01*
X007114Y004965D01*
X007155Y004936D01*
X007194Y004904D01*
X007230Y004869D01*
X007262Y004831D01*
X007292Y004791D01*
X007319Y004748D01*
X007342Y004704D01*
X007361Y004658D01*
X007377Y004610D01*
X007389Y004561D01*
X007397Y004512D01*
X007401Y004462D01*
X007401Y004412D01*
X007397Y004362D01*
X007389Y004313D01*
X007377Y004264D01*
X007361Y004216D01*
X007342Y004170D01*
X007319Y004126D01*
X007292Y004083D01*
X007262Y004043D01*
X007230Y004005D01*
X007194Y003970D01*
X007155Y003938D01*
X007114Y003909D01*
X007071Y003883D01*
X007026Y003861D01*
X006980Y003843D01*
X006932Y003828D01*
X006883Y003817D01*
X006834Y003810D01*
X006784Y003807D01*
X006733Y003808D01*
X006684Y003813D01*
X006634Y003822D01*
X006586Y003835D01*
X006539Y003851D01*
X006493Y003872D01*
X006449Y003896D01*
X006407Y003923D01*
X006367Y003953D01*
X006330Y003987D01*
X006296Y004024D01*
X006264Y004063D01*
X006236Y004104D01*
X006211Y004148D01*
X006190Y004193D01*
X006173Y004240D01*
X006159Y004288D01*
X006149Y004337D01*
X006143Y004387D01*
X006141Y004437D01*
X013228Y004437D02*
X013230Y004487D01*
X013236Y004537D01*
X013246Y004586D01*
X013260Y004634D01*
X013277Y004681D01*
X013298Y004726D01*
X013323Y004770D01*
X013351Y004811D01*
X013383Y004850D01*
X013417Y004887D01*
X013454Y004921D01*
X013494Y004951D01*
X013536Y004978D01*
X013580Y005002D01*
X013626Y005023D01*
X013673Y005039D01*
X013721Y005052D01*
X013771Y005061D01*
X013820Y005066D01*
X013871Y005067D01*
X013921Y005064D01*
X013970Y005057D01*
X014019Y005046D01*
X014067Y005031D01*
X014113Y005013D01*
X014158Y004991D01*
X014201Y004965D01*
X014242Y004936D01*
X014281Y004904D01*
X014317Y004869D01*
X014349Y004831D01*
X014379Y004791D01*
X014406Y004748D01*
X014429Y004704D01*
X014448Y004658D01*
X014464Y004610D01*
X014476Y004561D01*
X014484Y004512D01*
X014488Y004462D01*
X014488Y004412D01*
X014484Y004362D01*
X014476Y004313D01*
X014464Y004264D01*
X014448Y004216D01*
X014429Y004170D01*
X014406Y004126D01*
X014379Y004083D01*
X014349Y004043D01*
X014317Y004005D01*
X014281Y003970D01*
X014242Y003938D01*
X014201Y003909D01*
X014158Y003883D01*
X014113Y003861D01*
X014067Y003843D01*
X014019Y003828D01*
X013970Y003817D01*
X013921Y003810D01*
X013871Y003807D01*
X013820Y003808D01*
X013771Y003813D01*
X013721Y003822D01*
X013673Y003835D01*
X013626Y003851D01*
X013580Y003872D01*
X013536Y003896D01*
X013494Y003923D01*
X013454Y003953D01*
X013417Y003987D01*
X013383Y004024D01*
X013351Y004063D01*
X013323Y004104D01*
X013298Y004148D01*
X013277Y004193D01*
X013260Y004240D01*
X013246Y004288D01*
X013236Y004337D01*
X013230Y004387D01*
X013228Y004437D01*
D13*
X010253Y010008D02*
X010329Y010083D01*
X010329Y010158D01*
X010253Y010233D01*
X009878Y010233D01*
X009878Y010158D02*
X009878Y010308D01*
X009953Y010468D02*
X009878Y010543D01*
X009878Y010693D01*
X009953Y010768D01*
X010028Y010768D01*
X010103Y010693D01*
X010178Y010768D01*
X010253Y010768D01*
X010329Y010693D01*
X010329Y010543D01*
X010253Y010468D01*
X010103Y010618D02*
X010103Y010693D01*
D14*
X008451Y010653D02*
X008451Y010960D01*
X008451Y010806D02*
X007991Y010806D01*
X008144Y010653D01*
X007991Y010500D02*
X007991Y010346D01*
X007991Y010423D02*
X008374Y010423D01*
X008451Y010346D01*
X008451Y010269D01*
X008374Y010193D01*
X008267Y009889D02*
X008267Y006858D01*
X005393Y006858D01*
X005393Y009889D01*
X008267Y009889D01*
M02*
